<svg width="88" height="678" viewBox="0 0 88 678" fill="none" xmlns="http://www.w3.org/2000/svg">
<g clip-path="url(#clip0_8001_491)">
<path d="M18.0499 661.58C20.9126 672.374 27.6143 681.489 37.017 687.411C37.4647 687.693 37.9125 687.975 38.3797 688.227C59.2477 700.357 86.1047 693.257 98.2319 672.394C104.109 662.276 105.706 650.497 102.698 639.181C99.7206 627.885 92.5094 618.449 82.393 612.529C61.525 600.398 34.6681 607.499 22.531 628.377C16.6387 638.485 15.0575 650.274 18.0499 661.58ZM78.2798 686.301C76.9392 678.364 78.3784 670.259 82.4578 663.234C86.5372 656.21 92.8948 650.944 100.457 648.183C100.912 655.951 99.0736 663.697 95.0817 670.582C90.9868 677.597 85.0662 682.922 78.2798 686.301ZM80.5567 615.684C80.9832 615.932 81.3847 616.184 81.8015 616.447C90.4168 621.874 96.5621 630.229 99.1938 640.122C99.5855 641.554 99.861 643 100.071 644.447C91.3247 647.411 83.9823 653.35 79.3116 661.382C74.6408 669.414 73.1066 678.731 74.8457 687.782C63.875 692.018 51.1433 691.415 40.2006 685.062C30.9391 679.702 24.3192 671.005 21.5692 660.649C21.1775 659.217 20.902 657.771 20.6922 656.324C29.4383 653.36 36.7806 647.421 41.4514 639.389C46.1222 631.357 47.6564 622.04 45.9173 612.989C56.8977 608.738 69.614 609.331 80.5567 615.684ZM42.4832 614.47C43.8238 622.407 42.3846 630.512 38.3052 637.537C34.2258 644.561 27.8682 649.827 20.3064 652.588C19.851 644.821 21.6894 637.075 25.6813 630.189C29.7761 623.174 35.6968 617.849 42.4832 614.47Z" fill="#9ED6E7" fill-opacity="0.5"/>
</g>
<defs>
<clipPath id="clip0_8001_491">
<rect width="87.5687" height="677.569" fill="white"/>
</clipPath>
</defs>
</svg>
