<svg width="128" height="862" viewBox="0 0 128 862" fill="none" xmlns="http://www.w3.org/2000/svg">
<g clip-path="url(#clip0_8001_499)">
<path d="M125.096 814.068C123.893 808.984 117.291 805.47 106.412 804.1C106.812 802.552 106.865 800.953 106.54 799.393C105.277 793.347 98.8577 789.557 92.2314 790.941C90.738 791.253 89.334 791.809 88.0451 792.598C85.2943 790.576 81.2937 789.826 77.3768 790.645C75.6017 791.015 73.9029 791.695 72.4232 792.625C69.1553 790.92 65.0742 790.415 61.1035 791.244C55.7512 792.362 51.3723 795.672 49.4933 799.966C43.0588 800.599 38.0242 804.61 36.8082 809.518C31.5518 810.713 27.97 815.208 28.2709 819.958C18.0133 825.791 12.9232 831.92 13.8962 837.293L12.6887 864.583L12.7112 864.861C15.2033 876.791 44.5 880.424 79.4096 873.132C114.318 865.84 139.712 850.782 137.22 838.853L125.096 814.068ZM37.4748 811.662C37.564 811.644 37.6558 811.631 37.7461 811.618L38.7281 811.46L38.8555 810.662C39.4652 806.834 43.3049 803.446 48.1915 802.426C48.8795 802.282 49.6002 802.189 50.3355 802.145L51.0663 802.1L51.3188 801.414C52.7553 797.512 56.6786 794.454 61.5595 793.434C65.2471 792.664 69.0207 793.197 71.9066 794.897L72.528 795.262L73.1167 794.848C74.4809 793.889 76.1098 793.193 77.8325 792.833C81.4069 792.087 85.0108 792.847 87.2378 794.816L87.8963 795.401L88.6192 794.894C89.8467 794.03 91.2149 793.437 92.6885 793.13C98.1102 791.997 103.339 795.013 104.35 799.85C104.681 801.437 104.503 803.074 103.88 804.618L103.878 804.622C103.876 804.625 103.874 804.63 103.872 804.635C103.824 804.751 103.794 804.87 103.742 804.985L103.705 805.067L102.944 806.699L102.964 806.696L104.838 806.565C109.242 806.256 112.778 807.654 113.245 809.888C113.526 811.231 112.616 812.498 111.857 813.287C111.736 813.413 111.62 813.529 111.511 813.63L109.958 815.067L112.019 815.539C114.127 816.022 115.575 817.215 115.892 818.732C116.364 820.994 112.443 824.31 108.266 825.183L108.086 825.22L107.927 825.314C106.156 826.358 104.301 827.336 102.398 828.283C94.3122 832.298 85.0634 835.428 74.7664 837.578C57.1524 841.258 41.3539 841.061 35.9454 840.849C34.6988 840.801 34.0046 840.752 33.97 840.749L33.6582 840.77C28.9783 841.748 24.4677 839.165 23.6007 835.014C22.7337 830.864 25.8336 826.693 30.5135 825.715C30.8065 825.654 31.0994 825.606 31.3881 825.574L33.4666 825.326L32.1048 823.736C31.3465 822.85 30.8455 821.845 30.6172 820.752C30.6036 820.687 30.5963 820.623 30.5872 820.559L30.5029 819.986C30.1678 816.203 33.1417 812.568 37.4748 811.662ZM28.7231 822.272C28.7383 822.316 28.7593 822.36 28.7762 822.406C28.8012 822.476 28.8315 822.543 28.8579 822.613C29.0006 822.978 29.1622 823.334 29.3537 823.678C29.356 823.682 29.3572 823.688 29.3595 823.692C23.868 825.183 20.3377 830.327 21.4122 835.472C22.5214 840.781 28.1316 844.13 33.9622 842.989C34.2437 843.007 34.8972 843.045 35.861 843.083C41.3886 843.299 57.3884 843.491 75.2247 839.765C75.2275 839.765 75.2275 839.765 75.2304 839.764C88.1121 837.073 99.44 832.891 108.91 827.334C113.939 826.211 118.892 822.146 118.084 818.277C117.984 817.802 117.823 817.349 117.604 816.922C116.95 815.642 115.784 814.601 114.245 813.928C115.327 812.47 115.745 810.917 115.435 809.432C115.413 809.326 115.377 809.224 115.346 809.119C115.322 809.031 115.304 808.944 115.275 808.861C115.239 808.761 115.194 808.665 115.153 808.569C115.113 808.477 115.078 808.385 115.032 808.294C115.022 808.273 115.014 808.251 115.004 808.228C119.608 809.797 122.401 812.02 122.963 814.71C124.667 822.871 105.023 836.091 73.0653 842.766C41.1071 849.442 17.8151 845.19 16.1105 837.03C15.2275 832.803 19.809 827.464 28.7231 822.272ZM78.9516 870.946C46.532 877.718 17.3102 874.776 14.9269 864.534L15.9574 841.262C23.0206 848.872 46.3705 850.628 73.5227 844.956C100.672 839.285 121.369 828.328 124.792 818.525L135.056 839.439C136.972 849.781 111.371 864.174 78.9516 870.946Z" fill="#124C5F" fill-opacity="0.5"/>
<path d="M94.3938 849.103C93.7891 846.208 90.9455 844.35 88.0507 844.954C85.2492 845.539 83.4133 848.229 83.8547 851.028L66.4869 854.656C65.7695 851.915 63.0105 850.185 60.2076 850.77C57.3156 851.374 55.4537 854.216 56.0584 857.11C56.4112 858.799 57.5247 860.134 58.9667 860.835C57.9257 862.054 57.4399 863.724 57.7924 865.411C58.3971 868.306 61.2412 870.168 64.1332 869.563C66.9361 868.978 68.7728 866.285 68.3315 863.486L85.6992 859.858C86.4166 862.6 89.1763 864.332 91.9763 863.747C94.8711 863.143 96.7324 860.299 96.1277 857.404C95.7755 855.718 94.66 854.38 93.2209 853.679C94.259 852.461 94.7468 850.793 94.3938 849.103ZM93.9406 857.861C94.2928 859.547 93.2048 861.205 91.5188 861.558C89.8357 861.909 88.1775 860.824 87.8253 859.138C87.783 858.936 87.7631 858.727 87.7619 858.516L87.7536 857.147L65.3634 861.824L65.9039 863.082C65.9872 863.276 66.0511 863.475 66.0933 863.677C66.4455 865.363 65.3603 867.022 63.6744 867.374C61.9898 867.726 60.3316 866.641 59.9794 864.955C59.6279 863.271 60.713 861.613 62.3976 861.261L61.9401 859.071C60.2556 859.423 58.5974 858.338 58.2458 856.655C57.8936 854.969 58.9788 853.311 60.6633 852.959C62.3493 852.607 64.0075 853.692 64.3597 855.378C64.4026 855.583 64.4239 855.791 64.4251 856.002L64.4334 857.372L86.8222 852.695L86.2817 851.437C86.1978 851.24 86.1325 851.041 86.0903 850.839C85.7381 849.153 86.8233 847.495 88.5064 847.143C90.1924 846.791 91.8534 847.875 92.2056 849.561C92.5572 851.244 91.4692 852.903 89.7832 853.255L90.2406 855.445C91.9277 855.091 93.5888 856.176 93.9406 857.861Z" fill="#124C5F" fill-opacity="0.5"/>
</g>
<defs>
<clipPath id="clip0_8001_499">
<rect width="127.196" height="861.9" fill="white"/>
</clipPath>
</defs>
</svg>
