<svg width="68" height="224" viewBox="0 0 68 224" fill="none" xmlns="http://www.w3.org/2000/svg">
<g clip-path="url(#clip0_8001_503)">
<path d="M63.0388 189.413C59.6171 185.252 53.4315 184.649 49.2709 188.071C45.6029 191.087 44.6629 196.082 46.7876 200.116L24.6704 218.305C21.1223 215.441 16.0402 215.399 12.3723 218.416C8.21161 221.838 7.60875 228.023 11.0304 232.184C12.5162 233.99 14.5141 235.192 16.7442 235.561C16.7201 237.875 17.4686 240.012 18.9543 241.819C22.376 245.98 28.5616 246.583 32.7223 243.161C36.3902 240.144 37.3302 235.15 35.2055 231.116L57.268 212.972C60.8161 215.835 65.8981 215.877 69.5661 212.861C73.7268 209.439 74.3296 203.254 70.908 199.093C69.4222 197.286 67.4243 196.085 65.1941 195.716C65.273 193.357 64.5245 191.219 63.0388 189.413ZM63.1833 199.297C65.0534 199.227 66.8359 200.056 68.0064 201.479C70.1225 204.052 69.753 207.843 67.1799 209.959C64.6616 212.03 60.9605 211.77 58.7897 209.242C58.1144 208.421 56.9622 208.359 56.141 209.035L31.5602 229.25C30.739 229.925 30.6771 231.077 31.2527 231.889C33.2689 234.452 32.9092 238.143 30.3361 240.259C27.7631 242.375 23.9719 242.006 21.8558 239.433C20.6853 238.009 20.2167 236.101 20.646 234.279C20.8041 233.69 20.6081 233.117 20.248 232.679C19.8878 232.241 19.3086 231.983 18.755 231.98C16.885 232.049 15.1025 231.221 13.932 229.798C11.8159 227.225 12.1854 223.433 14.7585 221.317C17.2768 219.246 20.9779 219.506 23.1487 222.034C23.824 222.856 24.9762 222.918 25.7974 222.242L50.4877 201.937C51.3089 201.262 51.3708 200.11 50.7952 199.298C48.779 196.735 49.1387 193.043 51.7118 190.927C54.2848 188.811 58.076 189.181 60.192 191.754C61.3626 193.177 61.8312 195.086 61.4019 196.908C61.2438 197.497 61.4397 198.07 61.7999 198.508C62.0506 199.036 62.6298 199.293 63.1833 199.297Z" fill="#A0D6E7" fill-opacity="0.5"/>
<path d="M31.632 204.229C32.4532 203.553 32.5699 202.356 31.8946 201.535L28.698 197.648C28.0227 196.827 26.8254 196.71 26.0043 197.385C25.1831 198.061 25.0664 199.258 25.7417 200.079L28.9383 203.966C29.6136 204.787 30.8108 204.904 31.632 204.229Z" fill="#A0D6E7" fill-opacity="0.5"/>
<path d="M37.9877 201.021C38.2967 200.95 38.5059 200.87 38.7249 200.69C39.2724 200.24 39.5497 199.461 39.3635 198.788L38.1244 193.934C37.8676 192.952 36.8188 192.346 35.7919 192.548C34.8101 192.805 34.2043 193.854 34.4064 194.881L35.6454 199.735C35.9023 200.717 36.9511 201.323 37.9877 201.021Z" fill="#A0D6E7" fill-opacity="0.5"/>
<path d="M24.7561 210.709C25.4801 211.031 26.1979 210.9 26.7453 210.45C26.9643 210.27 27.1383 210.035 27.2125 209.79C27.654 208.876 27.2622 207.73 26.3034 207.234L21.7796 205.081C20.8658 204.639 19.7198 205.031 19.2235 205.99C18.7819 206.904 19.1738 208.05 20.1326 208.546L24.7561 210.709Z" fill="#A0D6E7" fill-opacity="0.5"/>
<path d="M57.2374 220.522C56.3236 220.08 55.1775 220.472 54.6812 221.431C54.2397 222.345 54.6315 223.491 55.5903 223.987L60.1141 226.14C60.8381 226.463 61.5559 226.331 62.1033 225.881C62.3223 225.701 62.4963 225.466 62.5705 225.221C63.012 224.308 62.6201 223.162 61.6614 222.665L57.2374 220.522Z" fill="#A0D6E7" fill-opacity="0.5"/>
</g>
<defs>
<clipPath id="clip0_8001_503">
<rect width="67.3367" height="223.207" fill="white"/>
</clipPath>
</defs>
</svg>
