<svg width="75" height="816" viewBox="0 0 75 816" fill="none" xmlns="http://www.w3.org/2000/svg">
<g clip-path="url(#clip0_8001_497)">
<path d="M50.0109 796.461C43.3945 800.703 45.4264 807.884 42.5721 817.364C38.5549 831.175 44.4163 837.694 50.7679 835.971C57.1196 834.247 58.1384 825.186 64.3847 821.939C70.3143 818.34 78.6059 821.938 83.0965 817.09C87.7454 812.418 85.1065 803.858 71.3482 800.508C62.1717 798.387 56.9307 792.909 50.0109 796.461Z" fill="#D9A6FF" fill-opacity="0.5"/>
<path d="M29.2348 800.789C36.0789 804.385 40.3124 810.767 38.7167 815.017C36.9576 819.419 30.0086 820.058 23.1644 816.462C16.3203 812.866 12.0868 806.484 13.6825 802.234C15.4416 797.832 22.3906 797.193 29.2348 800.789Z" fill="#D9A6FF" fill-opacity="0.5"/>
<path d="M62.9682 781.347C62.2148 788.916 65.4758 795.345 70.0945 795.928C74.7131 796.512 79.2069 791.002 79.9603 783.434C80.7137 775.865 77.4527 769.436 72.834 768.853C68.0443 768.429 63.5505 773.939 62.9682 781.347Z" fill="#D9A6FF" fill-opacity="0.5"/>
<path d="M37.4904 779.08C42.8429 785.38 43.9672 793.237 40.2336 796.386C36.5 799.535 29.0973 796.864 23.7448 790.563C18.3923 784.263 17.268 776.406 21.0016 773.257C24.7352 770.108 32.1379 772.779 37.4904 779.08Z" fill="#D9A6FF" fill-opacity="0.5"/>
<path d="M40.9739 776.765C43.5667 784.047 49.2998 788.393 53.6637 786.818C58.1928 785.087 59.7369 778.007 57.297 770.894C54.7041 763.611 48.971 759.265 44.6072 760.841C40.0904 762.247 38.381 769.482 40.9739 776.765Z" fill="#D9A6FF" fill-opacity="0.5"/>
</g>
<defs>
<clipPath id="clip0_8001_497">
<rect width="74.4684" height="815.613" fill="white"/>
</clipPath>
</defs>
</svg>
