<svg width="39" height="41" viewBox="0 0 39 41" fill="none" xmlns="http://www.w3.org/2000/svg">
<path d="M19.0555 20.3304C16.7431 22.2046 17.8285 24.8978 17.1694 28.654C16.2624 34.1211 18.7656 36.4203 21.0895 35.5258C23.4133 34.6313 23.3974 31.1032 25.6141 29.6257C27.6954 28.0239 30.9877 29.1093 32.4701 27.0785C34.0201 25.1098 32.6442 21.9076 27.2972 21.1157C23.7358 20.6312 21.5132 18.7108 19.0555 20.3304Z" fill="#FFE55E"/>
<path d="M11.3963 22.7511C14.1416 23.8883 16.0236 26.1937 15.6087 27.889C15.1387 29.6492 12.5412 30.1473 9.79593 29.01C7.05068 27.8728 5.16868 25.5674 5.58361 23.8721C6.05356 22.1119 8.6511 21.6139 11.3963 22.7511Z" fill="#FFAA00"/>
<path d="M23.2832 14.037C23.3333 16.9804 24.85 19.3392 26.621 19.3966C28.3921 19.4539 29.8464 17.168 29.7962 14.2246C29.7461 11.2811 28.2295 8.92234 26.4584 8.86503C24.6298 8.87556 23.1755 11.1615 23.2832 14.037Z" fill="#FFAA00"/>
<path d="M13.5552 14.0875C15.8564 16.3211 16.6288 19.3074 15.3574 20.6561C14.0859 22.0047 11.1705 21.2443 8.8692 19.0108C6.56792 16.7772 5.79551 13.7909 7.067 12.4422C8.33849 11.0935 11.2539 11.854 13.5552 14.0875Z" fill="#FFAA00"/>
<path d="M14.7694 13.0687C16.0714 15.7807 18.43 17.2473 20.0093 16.4819C21.6441 15.6509 21.9143 12.8668 20.6777 10.2148C19.3758 7.50276 17.0171 6.03614 15.4379 6.80154C13.7933 7.50696 13.4675 10.3567 14.7694 13.0687Z" fill="#FFAA00"/>
</svg>
