<svg width="1476" height="797" viewBox="0 0 1476 797" fill="none" xmlns="http://www.w3.org/2000/svg">
<path d="M2.79744 163.445C-16.0029 125.184 61.5202 112.782 188.34 112.682C193.536 106.103 196.47 102 196.47 102L192.928 112.684C478.617 113.115 1007.09 174.025 1255.41 144.668C1616.33 102 1369.29 592.953 1452.02 573.602C1534.74 554.25 1397.87 815.495 1127.81 795.955C857.757 776.415 412.915 511.054 412.915 588.857C412.915 666.66 2.79744 686.11 2.79744 686.11L192.928 112.684C191.391 112.681 189.862 112.681 188.34 112.682C158.594 150.341 54.7168 269.108 2.79744 163.445Z" fill="#FFF2B3" fill-opacity="0.34"/>
</svg>
