<svg width="31" height="660" viewBox="0 0 31 660" fill="none" xmlns="http://www.w3.org/2000/svg">
<g clip-path="url(#clip0_8001_493)">
<path d="M20.7782 650.013C17.7635 648.114 14.3833 649.177 12.1019 650.143C9.92753 651.062 7.70269 652.121 6.53217 653.98C5.75182 655.218 5.51861 656.321 5.83915 657.369C6.34007 659.108 8.07203 659.929 10.0554 660.871C11.9698 661.769 13.9658 663.026 15.6029 664.365C16.2993 664.938 16.9631 665.472 17.6238 665.888C18.5737 666.486 19.5261 666.836 20.5821 666.655C21.6605 666.469 22.5683 665.791 23.3399 664.566C24.5712 662.612 24.4543 660.019 24.3598 657.941C24.24 655.231 23.724 651.869 20.7782 650.013ZM20.0569 663.46C19.6602 663.479 18.4479 662.504 17.65 661.848C16.7971 661.157 15.8289 660.374 14.6864 659.654C13.5439 658.934 12.4334 658.408 11.428 657.929C10.4914 657.492 9.10204 656.829 8.93944 656.476C8.93944 656.476 8.92469 656.256 9.26284 655.719C9.93047 654.659 11.7234 653.827 13.3485 653.139C15.9737 652.024 17.6589 651.913 19.0079 652.763C20.3294 653.595 20.9395 655.19 21.069 658.098C21.1426 659.721 21.2356 661.741 20.5506 662.829C20.2573 663.355 20.0569 663.46 20.0569 663.46Z" fill="#9ED6E7" fill-opacity="0.5"/>
<path d="M25.9169 656.385C26.2977 656.97 26.8972 657.636 27.6544 658.113C28.3013 658.521 29.0763 658.817 29.9161 658.827C30.9369 658.854 32.4177 658.518 33.6983 656.729C34.1125 656.163 34.5679 655.623 35.0111 655.133C36.3478 653.591 38.0272 651.688 36.7426 649.668C35.9759 648.473 34.4275 647.94 32.3522 648.152C30.7858 648.319 29.0903 648.904 27.8113 649.714C26.4079 650.599 25.5471 651.691 25.2358 652.918C24.9766 654.062 25.2018 655.261 25.9169 656.385ZM29.571 652.476C31.1559 651.455 33.1899 651.218 33.8482 651.363C33.6242 651.779 32.9975 652.5 32.5543 652.99C32.0764 653.535 31.5241 654.167 31.0493 654.83C30.6923 655.335 30.3378 655.593 30.0034 655.574C29.5292 655.564 28.9393 655.097 28.6564 654.63C28.4214 654.27 28.3501 653.956 28.4113 653.706C28.5006 653.321 28.9091 652.886 29.571 652.476Z" fill="#9ED6E7" fill-opacity="0.5"/>
<path d="M9.14032 641.261C8.07992 643.189 8.41619 644.669 8.88208 645.578C9.26742 646.34 9.85523 646.902 10.5022 647.31C11.2593 647.787 12.1103 648.054 12.8119 648.13C14.134 648.29 15.3129 647.975 16.2191 647.239C17.2049 646.437 17.7956 645.194 17.9962 643.532C18.1826 642.015 17.9784 640.233 17.4438 638.762C16.7522 636.807 15.5889 635.632 14.1806 635.457C11.8035 635.171 10.8124 637.507 9.99879 639.379C9.74833 639.99 9.47185 640.643 9.14032 641.261ZM14.759 643.146C14.6615 643.912 14.4457 644.468 14.1499 644.724C13.9424 644.901 13.6232 644.95 13.2112 644.902C12.6768 644.834 11.9916 644.518 11.7775 644.095C11.6164 643.801 11.6955 643.37 11.9975 642.83C12.3984 642.102 12.7218 641.344 13.0069 640.678C13.2625 640.089 13.6068 639.267 13.8894 638.849C14.3701 639.46 14.9877 641.349 14.759 643.146Z" fill="#9ED6E7" fill-opacity="0.5"/>
<path d="M21.0988 648.466C21.2003 648.549 21.3242 648.627 21.4618 648.714C22.5355 649.39 24.16 649.894 25.7122 649.353C26.6739 649.017 27.9477 648.185 28.5156 646.062C28.7059 645.394 28.9548 644.724 29.1915 644.104C29.9139 642.194 30.8137 639.819 28.908 638.388C26.5965 636.624 22.4613 639.038 20.5677 641.556C18.2548 644.617 19.3221 647.135 21.0988 648.466ZM23.151 643.529C24.2857 642.033 26.1118 641.087 26.7777 641.007C26.7088 641.482 26.366 642.362 26.138 642.969C25.8804 643.652 25.5845 644.427 25.3748 645.218C25.2141 645.809 24.9662 646.172 24.6485 646.28C24.1876 646.432 23.459 646.184 23.0583 645.874C22.6438 645.555 21.9902 645.067 23.151 643.529Z" fill="#9ED6E7" fill-opacity="0.5"/>
</g>
<defs>
<clipPath id="clip0_8001_493">
<rect width="30.057" height="659.295" fill="white"/>
</clipPath>
</defs>
</svg>
