<svg width="63" height="195" viewBox="0 0 63 195" fill="none" xmlns="http://www.w3.org/2000/svg">
<g clip-path="url(#clip0_8001_501)">
<path d="M42.0448 178.175C36.4823 181.74 38.1906 187.778 35.7909 195.748C32.4136 207.359 37.3413 212.84 42.6813 211.391C48.0213 209.942 48.8777 202.324 54.1292 199.594C59.1142 196.568 66.0851 199.593 69.8604 195.517C73.7689 191.589 71.5503 184.393 59.9835 181.577C52.2686 179.793 47.8625 175.188 42.0448 178.175Z" fill="#D9A6FF" fill-opacity="0.5"/>
<path d="M24.5781 181.813C30.332 184.836 33.8912 190.201 32.5497 193.774C31.0707 197.476 25.2286 198.013 19.4746 194.989C13.7206 191.966 10.1615 186.601 11.503 183.028C12.9819 179.327 18.8241 178.79 24.5781 181.813Z" fill="#D9A6FF" fill-opacity="0.5"/>
<path d="M52.9385 165.468C52.3051 171.831 55.0467 177.236 58.9297 177.726C62.8127 178.217 66.5907 173.584 67.2241 167.222C67.8574 160.859 65.1159 155.454 61.2329 154.963C57.2061 154.607 53.4281 159.239 52.9385 165.468Z" fill="#D9A6FF" fill-opacity="0.5"/>
<path d="M31.5185 163.562C36.0185 168.859 36.9637 175.464 33.8248 178.111C30.6859 180.759 24.4623 178.514 19.9624 173.216C15.4625 167.919 14.5172 161.314 17.6561 158.667C20.795 156.019 27.0186 158.265 31.5185 163.562Z" fill="#D9A6FF" fill-opacity="0.5"/>
<path d="M34.4476 161.615C36.6274 167.738 41.4474 171.392 45.1161 170.067C48.9238 168.612 50.222 162.659 48.1707 156.68C45.9908 150.557 41.1709 146.903 37.5021 148.228C33.7048 149.409 32.2677 155.492 34.4476 161.615Z" fill="#D9A6FF" fill-opacity="0.5"/>
</g>
<defs>
<clipPath id="clip0_8001_501">
<rect width="62.6068" height="194.275" fill="white"/>
</clipPath>
</defs>
</svg>
