<svg width="65" height="234" viewBox="0 0 65 234" fill="none" xmlns="http://www.w3.org/2000/svg">
<g clip-path="url(#clip0_8001_505)">
<path d="M54.1294 211.457C58.0013 217.757 67.2975 210.667 68.1631 204.843C74.9377 196.233 65.4368 188.525 58.3141 196.396C52.057 198.442 47.6089 209.115 54.1294 211.457ZM55.2585 210.022C49.0861 208.418 54.7739 199.418 59.0104 197.873L59.2056 197.33C65.3944 190.35 72.3737 196.539 66.1849 203.518L65.9896 204.062C65.5145 208.799 58.0436 215.931 54.7151 209.827L55.2585 210.022Z" fill="#124C5F" fill-opacity="0.5"/>
<path d="M38.5407 198.494C42.4125 204.793 51.7088 197.703 52.5744 191.879C59.3489 183.27 49.848 175.561 42.5301 183.975C36.273 186.022 31.8249 196.694 38.3454 199.037L38.5407 198.494ZM39.6697 197.059C33.4973 195.455 39.1851 186.455 43.4216 184.909L43.6168 184.366C49.8057 177.387 56.7849 183.575 50.5961 190.555L50.4009 191.098C49.9257 195.836 42.4549 202.968 39.1264 196.864L39.6697 197.059Z" fill="#124C5F" fill-opacity="0.5"/>
<path d="M56.7286 233.251C60.4476 238.268 68.1819 235.525 67.9608 229.311C72.6724 223.028 63.7148 215.515 57.9165 221.407C52.0499 222.367 50.9467 230.56 56.1852 233.056L56.7286 233.251ZM57.8577 231.816L57.3143 231.621C53.1625 229.515 54.2234 223.148 58.6127 222.884L59.3514 222.536C63.4772 217.883 70.4565 224.072 66.3306 228.725L66.1354 229.268C66.3989 233.658 60.4899 236.443 57.6625 232.359L57.8577 231.816Z" fill="#124C5F" fill-opacity="0.5"/>
<path d="M16.942 200.55C20.661 205.567 28.3953 202.824 28.1741 196.61C32.8857 190.327 23.9282 182.813 18.1298 188.706C12.2632 189.666 11.16 197.859 16.3986 200.354L16.942 200.55ZM18.0711 199.115L17.5277 198.92C13.3759 196.814 14.4368 190.447 18.8261 190.183L19.5647 189.835C23.6906 185.182 30.6699 191.371 26.544 196.024L26.3488 196.567C26.6122 200.957 20.7033 203.742 17.8758 199.658L18.0711 199.115Z" fill="#124C5F" fill-opacity="0.5"/>
<path d="M48.6203 228.497C60.1064 213.605 35.5602 193.128 23.1825 207.087C3.01874 210.272 10.3297 225.783 21.0703 235.164C32.0061 244.001 49.2414 248.967 48.6203 228.497ZM46.9901 227.911L46.7949 228.455C47.4583 247.099 31.8532 242.719 22.0042 234.272C12.1551 225.825 4.2584 211.944 23.1402 208.912L23.8788 208.564C35.3226 195.497 57.3472 214.454 46.9901 227.911Z" fill="#124C5F" fill-opacity="0.5"/>
</g>
<defs>
<clipPath id="clip0_8001_505">
<rect width="64.2107" height="233.762" fill="white"/>
</clipPath>
</defs>
</svg>
