<svg width="75" height="854" viewBox="0 0 75 854" fill="none" xmlns="http://www.w3.org/2000/svg">
<g clip-path="url(#clip0_8001_495)">
<path d="M53.1794 826.628C48.9518 819.451 41.4347 821.539 31.6464 818.401C17.3855 813.899 10.5964 820.213 12.3883 827.142C14.0052 833.924 23.4611 835.277 26.6703 841.896C30.3415 848.303 26.5271 857.126 31.5211 862.241C36.3401 867.208 45.0995 864.662 48.8088 849.731C51.2233 839.727 57.12 834.165 53.1794 826.628Z" fill="#FF6E9F" fill-opacity="0.5"/>
<path d="M48.9341 805.891C45.7742 813.159 39.4015 817.116 34.8659 815.097C30.3304 813.078 29.2559 805.249 32.5909 798.128C35.7509 790.86 41.9486 786.756 46.6591 788.923C51.3696 791.09 52.0941 798.623 48.9341 805.891Z" fill="#FF6E9F" fill-opacity="0.5"/>
<path d="M68.2736 841.465C60.6165 840.425 54.0374 843.906 53.4111 849.097C52.7847 854.288 58.5591 859.158 66.1847 859.87C73.8418 860.909 80.4209 857.428 81.0473 852.237C81.6736 847.047 75.8992 842.177 68.2736 841.465Z" fill="#FF6E9F" fill-opacity="0.5"/>
<path d="M71.2475 813.873C65.0009 819.14 57.2144 820.098 53.7638 815.984C50.3131 811.87 52.7732 804.012 59.0199 798.745C65.2665 793.478 73.053 792.52 76.5037 796.634C79.9543 800.748 77.4942 808.606 71.2475 813.873Z" fill="#FF6E9F" fill-opacity="0.5"/>
<path d="M73.2179 817.642C65.4454 820.417 60.742 826.685 62.5199 831.796C64.2977 836.907 71.8744 838.782 79.6469 836.006C87.4194 833.23 92.1227 826.963 90.3448 821.852C88.567 816.74 80.9904 814.866 73.2179 817.642Z" fill="#FF6E9F" fill-opacity="0.5"/>
</g>
<defs>
<clipPath id="clip0_8001_495">
<rect width="73.5424" height="853.77" fill="white" transform="translate(0.901855)"/>
</clipPath>
</defs>
</svg>
